<svg xmlns="http://www.w3.org/2000/svg" width="462.909" height="483.562" viewBox="0 0 462.909 483.562">
  <g id="logo" transform="translate(947 -1354.719) rotate(90)">
    <g id="Group_192" data-name="Group 192">
      <g id="Path_33" data-name="Path 33" transform="translate(1486 721.208)" fill="#96f">
        <path d="M 155.1145782470703 223.7923278808594 L 65.88542175292969 223.7923278808594 C 60.17150115966797 223.7923278808594 54.75634384155273 222.2318725585938 49.79036712646484 219.1543426513672 C 47.43236923217773 217.6930389404297 45.19615936279297 215.8928680419922 43.1439208984375 213.8038787841797 C 41.12173843383789 211.7454528808594 39.27052688598633 209.3993988037109 37.64176177978516 206.8309020996094 C 35.48647308349609 203.4320831298828 33.7346305847168 199.6764221191406 32.43489456176758 195.6682434082031 C 31.11760520935059 191.6059265136719 30.28947448730469 187.358642578125 29.9734992980957 183.0443267822266 C 29.30400085449219 173.9032897949219 30.97381591796875 164.7788238525391 34.80239486694336 156.6573181152344 L 79.41697692871094 62.01771545410156 C 81.12831878662109 58.38747787475586 83.19905090332031 55.10463714599609 85.5716552734375 52.2603759765625 C 87.83152770996094 49.55121612548828 90.37336730957031 47.22890090942383 93.12652587890625 45.35797882080078 C 98.39686584472656 41.7764778137207 104.4045028686523 39.88339996337891 110.5 39.88339996337891 C 116.5954971313477 39.88339996337891 122.6031341552734 41.7764778137207 127.8734741210938 45.35797882080078 C 130.6266326904297 47.22890090942383 133.1684722900391 49.55121612548828 135.4283447265625 52.2603759765625 C 137.8009490966797 55.10463714599609 139.8716888427734 58.38747787475586 141.5830230712891 62.01771545410156 L 186.1976318359375 156.6573181152344 C 190.0262145996094 164.7788238525391 191.6960296630859 173.9032897949219 191.0265197753906 183.0443267822266 C 190.7105560302734 187.3586120605469 189.8824157714844 191.6059265136719 188.5651245117188 195.6682434082031 C 187.2653961181641 199.6764221191406 185.5135498046875 203.4320831298828 183.3582611083984 206.8309020996094 C 181.7295074462891 209.3993988037109 179.8782958984375 211.7454223632812 177.8561096191406 213.8038482666016 C 175.8038482666016 215.8928680419922 173.5676574707031 217.6930389404297 171.2096557617188 219.1543426513672 C 166.2436828613281 222.2318725585938 160.8285217285156 223.7923278808594 155.1145782470703 223.7923278808594 Z" stroke="none"/>
        <path d="M 110.5 41.88339233398438 C 104.806999206543 41.88339233398438 99.18805694580078 43.65689086914062 94.25064086914062 47.01214599609375 C 91.65144348144531 48.77847290039062 89.24810791015625 50.97525024414062 87.10746765136719 53.54147338867188 C 84.84371948242188 56.2552490234375 82.86491394042969 59.39399719238281 81.22602844238281 62.87052917480469 L 36.6114501953125 157.5101318359375 C 32.92936706542969 165.3208312988281 31.32374572753906 174.0998840332031 31.9681396484375 182.8982238769531 C 32.27241516113281 187.0526428222656 33.06953430175781 191.1415252685547 34.33735656738281 195.0513305664062 C 35.5853271484375 198.8998870849609 37.26536560058594 202.5027465820312 39.33078002929688 205.7598266601562 C 40.88414001464844 208.2094421386719 42.64707946777344 210.4442749023438 44.57061767578125 212.4022521972656 C 46.51097106933594 214.3773651123047 48.62161254882812 216.0771331787109 50.84388732910156 217.4543609619141 C 55.48866271972656 220.3328247070312 60.54936218261719 221.7923278808594 65.88542175292969 221.7923278808594 L 155.1145935058594 221.7923278808594 C 160.4506378173828 221.7923278808594 165.5113372802734 220.3328247070312 170.1560821533203 217.4543304443359 C 172.3783874511719 216.0771331787109 174.4890289306641 214.3773651123047 176.4293823242188 212.4022521972656 C 178.3529205322266 210.4442749023438 180.1158294677734 208.2094421386719 181.6692199707031 205.7598266601562 C 183.7346343994141 202.5027465820312 185.4146728515625 198.8998565673828 186.6626434326172 195.0513305664062 C 187.9304809570312 191.1415252685547 188.7275848388672 187.0526123046875 189.0318603515625 182.8982238769531 C 189.6762542724609 174.0998840332031 188.0706481933594 165.3208312988281 184.3885498046875 157.5101318359375 L 139.7739715576172 62.87052917480469 C 138.1350860595703 59.39399719238281 136.1562805175781 56.25527954101562 133.8925170898438 53.54147338867188 C 131.7518920898438 50.97525024414062 129.3485565185547 48.77847290039062 126.7493362426758 47.01214599609375 C 121.8119201660156 43.65689086914062 116.193000793457 41.88339233398438 110.5 41.88339233398438 M 110.5 37.88339233398438 C 123.2876281738281 37.88339233398438 136.0752563476562 45.64389038085938 143.39208984375 61.16488647460938 L 188.0066680908203 155.8045043945312 C 202.6628570556641 186.8942565917969 184.3819732666016 225.7923278808594 155.1145935058594 225.7923278808594 L 65.88542175292969 225.7923278808594 C 36.61799621582031 225.7923278808594 18.33714294433594 186.8942565917969 32.99333190917969 155.8045043945312 L 77.60791015625 61.16488647460938 C 84.92474365234375 45.64389038085938 97.71237182617188 37.88339233398438 110.5 37.88339233398438 Z" stroke="none" fill="#96f"/>
      </g>
      <g id="Path_38" data-name="Path 38" transform="translate(1707 709.884) rotate(180)" fill="#27d6f6">
        <path d="M 155.1145782470703 223.7923278808594 L 65.88542175292969 223.7923278808594 C 60.17150115966797 223.7923278808594 54.75634384155273 222.2318725585938 49.79036712646484 219.1543426513672 C 47.43236923217773 217.6930389404297 45.19615936279297 215.8928680419922 43.1439208984375 213.8038787841797 C 41.12173843383789 211.7454528808594 39.27052688598633 209.3993988037109 37.64176177978516 206.8309020996094 C 35.48647308349609 203.4320831298828 33.7346305847168 199.6764221191406 32.43489456176758 195.6682434082031 C 31.11760520935059 191.6059265136719 30.28947448730469 187.358642578125 29.9734992980957 183.0443267822266 C 29.30400085449219 173.9032897949219 30.97381591796875 164.7788238525391 34.80239486694336 156.6573181152344 L 79.41697692871094 62.01771545410156 C 81.12831878662109 58.38747787475586 83.19905090332031 55.10463714599609 85.5716552734375 52.2603759765625 C 87.83152770996094 49.55121612548828 90.37336730957031 47.22890090942383 93.12652587890625 45.35797882080078 C 98.39686584472656 41.7764778137207 104.4045028686523 39.88339996337891 110.5 39.88339996337891 C 116.5954971313477 39.88339996337891 122.6031341552734 41.7764778137207 127.8734741210938 45.35797882080078 C 130.6266326904297 47.22890090942383 133.1684722900391 49.55121612548828 135.4283447265625 52.2603759765625 C 137.8009490966797 55.10463714599609 139.8716888427734 58.38747787475586 141.5830230712891 62.01771545410156 L 186.1976318359375 156.6573181152344 C 190.0262145996094 164.7788238525391 191.6960296630859 173.9032897949219 191.0265197753906 183.0443267822266 C 190.7105560302734 187.3586120605469 189.8824157714844 191.6059265136719 188.5651245117188 195.6682434082031 C 187.2653961181641 199.6764221191406 185.5135498046875 203.4320831298828 183.3582611083984 206.8309020996094 C 181.7295074462891 209.3993988037109 179.8782958984375 211.7454223632812 177.8561096191406 213.8038482666016 C 175.8038482666016 215.8928680419922 173.5676574707031 217.6930389404297 171.2096557617188 219.1543426513672 C 166.2436828613281 222.2318725585938 160.8285217285156 223.7923278808594 155.1145782470703 223.7923278808594 Z" stroke="none"/>
        <path d="M 110.5 41.88339233398438 C 104.806999206543 41.88339233398438 99.18805694580078 43.65689086914062 94.25064086914062 47.01214599609375 C 91.65144348144531 48.77847290039062 89.24810791015625 50.97525024414062 87.10746765136719 53.54147338867188 C 84.84371948242188 56.2552490234375 82.86491394042969 59.39399719238281 81.22602844238281 62.87052917480469 L 36.6114501953125 157.5101318359375 C 32.92936706542969 165.3208312988281 31.32374572753906 174.0998840332031 31.9681396484375 182.8982238769531 C 32.27241516113281 187.0526428222656 33.06953430175781 191.1415252685547 34.33735656738281 195.0513305664062 C 35.5853271484375 198.8998870849609 37.26536560058594 202.5027465820312 39.33078002929688 205.7598266601562 C 40.88414001464844 208.2094421386719 42.64707946777344 210.4442749023438 44.57061767578125 212.4022521972656 C 46.51097106933594 214.3773651123047 48.62161254882812 216.0771331787109 50.84388732910156 217.4543609619141 C 55.48866271972656 220.3328247070312 60.54936218261719 221.7923278808594 65.88542175292969 221.7923278808594 L 155.1145935058594 221.7923278808594 C 160.4506378173828 221.7923278808594 165.5113372802734 220.3328247070312 170.1560821533203 217.4543304443359 C 172.3783874511719 216.0771331787109 174.4890289306641 214.3773651123047 176.4293823242188 212.4022521972656 C 178.3529205322266 210.4442749023438 180.1158294677734 208.2094421386719 181.6692199707031 205.7598266601562 C 183.7346343994141 202.5027465820312 185.4146728515625 198.8998565673828 186.6626434326172 195.0513305664062 C 187.9304809570312 191.1415252685547 188.7275848388672 187.0526123046875 189.0318603515625 182.8982238769531 C 189.6762542724609 174.0998840332031 188.0706481933594 165.3208312988281 184.3885498046875 157.5101318359375 L 139.7739715576172 62.87052917480469 C 138.1350860595703 59.39399719238281 136.1562805175781 56.25527954101562 133.8925170898438 53.54147338867188 C 131.7518920898438 50.97525024414062 129.3485565185547 48.77847290039062 126.7493362426758 47.01214599609375 C 121.8119201660156 43.65689086914062 116.193000793457 41.88339233398438 110.5 41.88339233398438 M 110.5 37.88339233398438 C 123.2876281738281 37.88339233398438 136.0752563476562 45.64389038085938 143.39208984375 61.16488647460938 L 188.0066680908203 155.8045043945312 C 202.6628570556641 186.8942565917969 184.3819732666016 225.7923278808594 155.1145935058594 225.7923278808594 L 65.88542175292969 225.7923278808594 C 36.61799621582031 225.7923278808594 18.33714294433594 186.8942565917969 32.99333190917969 155.8045043945312 L 77.60791015625 61.16488647460938 C 84.92474365234375 45.64389038085938 97.71237182617188 37.88339233398438 110.5 37.88339233398438 Z" stroke="none" fill="#27d6f6"/>
      </g>
    </g>
    <g id="Group_193" data-name="Group 193" transform="translate(1417.931 -1024.837) rotate(60)">
      <g id="Path_33-2" data-name="Path 33" transform="translate(1486 721.208)" fill="#ceb5ff">
        <path d="M 155.1145782470703 223.7923278808594 L 65.88542175292969 223.7923278808594 C 60.17150115966797 223.7923278808594 54.75634384155273 222.2318725585938 49.79036712646484 219.1543426513672 C 47.43236923217773 217.6930389404297 45.19615936279297 215.8928680419922 43.1439208984375 213.8038787841797 C 41.12173843383789 211.7454528808594 39.27052688598633 209.3993988037109 37.64176177978516 206.8309020996094 C 35.48647308349609 203.4320831298828 33.7346305847168 199.6764221191406 32.43489456176758 195.6682434082031 C 31.11760520935059 191.6059265136719 30.28947448730469 187.358642578125 29.9734992980957 183.0443267822266 C 29.30400085449219 173.9032897949219 30.97381591796875 164.7788238525391 34.80239486694336 156.6573181152344 L 79.41697692871094 62.01771545410156 C 81.12831878662109 58.38747787475586 83.19905090332031 55.10463714599609 85.5716552734375 52.2603759765625 C 87.83152770996094 49.55121612548828 90.37336730957031 47.22890090942383 93.12652587890625 45.35797882080078 C 98.39686584472656 41.7764778137207 104.4045028686523 39.88339996337891 110.5 39.88339996337891 C 116.5954971313477 39.88339996337891 122.6031341552734 41.7764778137207 127.8734741210938 45.35797882080078 C 130.6266326904297 47.22890090942383 133.1684722900391 49.55121612548828 135.4283447265625 52.2603759765625 C 137.8009490966797 55.10463714599609 139.8716888427734 58.38747787475586 141.5830230712891 62.01771545410156 L 186.1976318359375 156.6573181152344 C 190.0262145996094 164.7788238525391 191.6960296630859 173.9032897949219 191.0265197753906 183.0443267822266 C 190.7105560302734 187.3586120605469 189.8824157714844 191.6059265136719 188.5651245117188 195.6682434082031 C 187.2653961181641 199.6764221191406 185.5135498046875 203.4320831298828 183.3582611083984 206.8309020996094 C 181.7295074462891 209.3993988037109 179.8782958984375 211.7454223632812 177.8561096191406 213.8038482666016 C 175.8038482666016 215.8928680419922 173.5676574707031 217.6930389404297 171.2096557617188 219.1543426513672 C 166.2436828613281 222.2318725585938 160.8285217285156 223.7923278808594 155.1145782470703 223.7923278808594 Z" stroke="none"/>
        <path d="M 110.5 41.88339233398438 C 104.806999206543 41.88339233398438 99.18805694580078 43.65689086914062 94.25064086914062 47.01214599609375 C 91.65144348144531 48.77847290039062 89.24810791015625 50.97525024414062 87.10746765136719 53.54147338867188 C 84.84371948242188 56.2552490234375 82.86491394042969 59.39399719238281 81.22602844238281 62.87052917480469 L 36.6114501953125 157.5101318359375 C 32.92936706542969 165.3208312988281 31.32374572753906 174.0998840332031 31.9681396484375 182.8982238769531 C 32.27241516113281 187.0526428222656 33.06953430175781 191.1415252685547 34.33735656738281 195.0513305664062 C 35.5853271484375 198.8998870849609 37.26536560058594 202.5027465820312 39.33078002929688 205.7598266601562 C 40.88414001464844 208.2094421386719 42.64707946777344 210.4442749023438 44.57061767578125 212.4022521972656 C 46.51097106933594 214.3773651123047 48.62161254882812 216.0771331787109 50.84388732910156 217.4543609619141 C 55.48866271972656 220.3328247070312 60.54936218261719 221.7923278808594 65.88542175292969 221.7923278808594 L 155.1145935058594 221.7923278808594 C 160.4506378173828 221.7923278808594 165.5113372802734 220.3328247070312 170.1560821533203 217.4543304443359 C 172.3783874511719 216.0771331787109 174.4890289306641 214.3773651123047 176.4293823242188 212.4022521972656 C 178.3529205322266 210.4442749023438 180.1158294677734 208.2094421386719 181.6692199707031 205.7598266601562 C 183.7346343994141 202.5027465820312 185.4146728515625 198.8998565673828 186.6626434326172 195.0513305664062 C 187.9304809570312 191.1415252685547 188.7275848388672 187.0526123046875 189.0318603515625 182.8982238769531 C 189.6762542724609 174.0998840332031 188.0706481933594 165.3208312988281 184.3885498046875 157.5101318359375 L 139.7739715576172 62.87052917480469 C 138.1350860595703 59.39399719238281 136.1562805175781 56.25527954101562 133.8925170898438 53.54147338867188 C 131.7518920898438 50.97525024414062 129.3485565185547 48.77847290039062 126.7493362426758 47.01214599609375 C 121.8119201660156 43.65689086914062 116.193000793457 41.88339233398438 110.5 41.88339233398438 M 110.5 37.88339233398438 C 123.2876281738281 37.88339233398438 136.0752563476562 45.64389038085938 143.39208984375 61.16488647460938 L 188.0066680908203 155.8045043945312 C 202.6628570556641 186.8942565917969 184.3819732666016 225.7923278808594 155.1145935058594 225.7923278808594 L 65.88542175292969 225.7923278808594 C 36.61799621582031 225.7923278808594 18.33714294433594 186.8942565917969 32.99333190917969 155.8045043945312 L 77.60791015625 61.16488647460938 C 84.92474365234375 45.64389038085938 97.71237182617188 37.88339233398438 110.5 37.88339233398438 Z" stroke="none" fill="#ceb5ff"/>
      </g>
      <g id="Path_38-2" data-name="Path 38" transform="translate(1707 709.884) rotate(180)" fill="#9ff0ff">
        <path d="M 155.1145782470703 223.7923278808594 L 65.88542175292969 223.7923278808594 C 60.17150115966797 223.7923278808594 54.75634384155273 222.2318725585938 49.79036712646484 219.1543426513672 C 47.43236923217773 217.6930389404297 45.19615936279297 215.8928680419922 43.1439208984375 213.8038787841797 C 41.12173843383789 211.7454528808594 39.27052688598633 209.3993988037109 37.64176177978516 206.8309020996094 C 35.48647308349609 203.4320831298828 33.7346305847168 199.6764221191406 32.43489456176758 195.6682434082031 C 31.11760520935059 191.6059265136719 30.28947448730469 187.358642578125 29.9734992980957 183.0443267822266 C 29.30400085449219 173.9032897949219 30.97381591796875 164.7788238525391 34.80239486694336 156.6573181152344 L 79.41697692871094 62.01771545410156 C 81.12831878662109 58.38747787475586 83.19905090332031 55.10463714599609 85.5716552734375 52.2603759765625 C 87.83152770996094 49.55121612548828 90.37336730957031 47.22890090942383 93.12652587890625 45.35797882080078 C 98.39686584472656 41.7764778137207 104.4045028686523 39.88339996337891 110.5 39.88339996337891 C 116.5954971313477 39.88339996337891 122.6031341552734 41.7764778137207 127.8734741210938 45.35797882080078 C 130.6266326904297 47.22890090942383 133.1684722900391 49.55121612548828 135.4283447265625 52.2603759765625 C 137.8009490966797 55.10463714599609 139.8716888427734 58.38747787475586 141.5830230712891 62.01771545410156 L 186.1976318359375 156.6573181152344 C 190.0262145996094 164.7788238525391 191.6960296630859 173.9032897949219 191.0265197753906 183.0443267822266 C 190.7105560302734 187.3586120605469 189.8824157714844 191.6059265136719 188.5651245117188 195.6682434082031 C 187.2653961181641 199.6764221191406 185.5135498046875 203.4320831298828 183.3582611083984 206.8309020996094 C 181.7295074462891 209.3993988037109 179.8782958984375 211.7454223632812 177.8561096191406 213.8038482666016 C 175.8038482666016 215.8928680419922 173.5676574707031 217.6930389404297 171.2096557617188 219.1543426513672 C 166.2436828613281 222.2318725585938 160.8285217285156 223.7923278808594 155.1145782470703 223.7923278808594 Z" stroke="none"/>
        <path d="M 110.5 41.88339233398438 C 104.806999206543 41.88339233398438 99.18805694580078 43.65689086914062 94.25064086914062 47.01214599609375 C 91.65144348144531 48.77847290039062 89.24810791015625 50.97525024414062 87.10746765136719 53.54147338867188 C 84.84371948242188 56.2552490234375 82.86491394042969 59.39399719238281 81.22602844238281 62.87052917480469 L 36.6114501953125 157.5101318359375 C 32.92936706542969 165.3208312988281 31.32374572753906 174.0998840332031 31.9681396484375 182.8982238769531 C 32.27241516113281 187.0526428222656 33.06953430175781 191.1415252685547 34.33735656738281 195.0513305664062 C 35.5853271484375 198.8998870849609 37.26536560058594 202.5027465820312 39.33078002929688 205.7598266601562 C 40.88414001464844 208.2094421386719 42.64707946777344 210.4442749023438 44.57061767578125 212.4022521972656 C 46.51097106933594 214.3773651123047 48.62161254882812 216.0771331787109 50.84388732910156 217.4543609619141 C 55.48866271972656 220.3328247070312 60.54936218261719 221.7923278808594 65.88542175292969 221.7923278808594 L 155.1145935058594 221.7923278808594 C 160.4506378173828 221.7923278808594 165.5113372802734 220.3328247070312 170.1560821533203 217.4543304443359 C 172.3783874511719 216.0771331787109 174.4890289306641 214.3773651123047 176.4293823242188 212.4022521972656 C 178.3529205322266 210.4442749023438 180.1158294677734 208.2094421386719 181.6692199707031 205.7598266601562 C 183.7346343994141 202.5027465820312 185.4146728515625 198.8998565673828 186.6626434326172 195.0513305664062 C 187.9304809570312 191.1415252685547 188.7275848388672 187.0526123046875 189.0318603515625 182.8982238769531 C 189.6762542724609 174.0998840332031 188.0706481933594 165.3208312988281 184.3885498046875 157.5101318359375 L 139.7739715576172 62.87052917480469 C 138.1350860595703 59.39399719238281 136.1562805175781 56.25527954101562 133.8925170898438 53.54147338867188 C 131.7518920898438 50.97525024414062 129.3485565185547 48.77847290039062 126.7493362426758 47.01214599609375 C 121.8119201660156 43.65689086914062 116.193000793457 41.88339233398438 110.5 41.88339233398438 M 110.5 37.88339233398438 C 123.2876281738281 37.88339233398438 136.0752563476562 45.64389038085938 143.39208984375 61.16488647460938 L 188.0066680908203 155.8045043945312 C 202.6628570556641 186.8942565917969 184.3819732666016 225.7923278808594 155.1145935058594 225.7923278808594 L 65.88542175292969 225.7923278808594 C 36.61799621582031 225.7923278808594 18.33714294433594 186.8942565917969 32.99333190917969 155.8045043945312 L 77.60791015625 61.16488647460938 C 84.92474365234375 45.64389038085938 97.71237182617188 37.88339233398438 110.5 37.88339233398438 Z" stroke="none" fill="#9ff0ff"/>
      </g>
    </g>
    <g id="Group_194" data-name="Group 194" transform="translate(3014.431 -309.291) rotate(120)">
      <g id="Path_33-3" data-name="Path 33" transform="translate(1486 721.208)" fill="#9b77e3">
        <path d="M 155.1145782470703 223.7923278808594 L 65.88542175292969 223.7923278808594 C 60.17150115966797 223.7923278808594 54.75634384155273 222.2318725585938 49.79036712646484 219.1543426513672 C 47.43236923217773 217.6930389404297 45.19615936279297 215.8928680419922 43.1439208984375 213.8038787841797 C 41.12173843383789 211.7454528808594 39.27052688598633 209.3993988037109 37.64176177978516 206.8309020996094 C 35.48647308349609 203.4320831298828 33.7346305847168 199.6764221191406 32.43489456176758 195.6682434082031 C 31.11760520935059 191.6059265136719 30.28947448730469 187.358642578125 29.9734992980957 183.0443267822266 C 29.30400085449219 173.9032897949219 30.97381591796875 164.7788238525391 34.80239486694336 156.6573181152344 L 79.41697692871094 62.01771545410156 C 81.12831878662109 58.38747787475586 83.19905090332031 55.10463714599609 85.5716552734375 52.2603759765625 C 87.83152770996094 49.55121612548828 90.37336730957031 47.22890090942383 93.12652587890625 45.35797882080078 C 98.39686584472656 41.7764778137207 104.4045028686523 39.88339996337891 110.5 39.88339996337891 C 116.5954971313477 39.88339996337891 122.6031341552734 41.7764778137207 127.8734741210938 45.35797882080078 C 130.6266326904297 47.22890090942383 133.1684722900391 49.55121612548828 135.4283447265625 52.2603759765625 C 137.8009490966797 55.10463714599609 139.8716888427734 58.38747787475586 141.5830230712891 62.01771545410156 L 186.1976318359375 156.6573181152344 C 190.0262145996094 164.7788238525391 191.6960296630859 173.9032897949219 191.0265197753906 183.0443267822266 C 190.7105560302734 187.3586120605469 189.8824157714844 191.6059265136719 188.5651245117188 195.6682434082031 C 187.2653961181641 199.6764221191406 185.5135498046875 203.4320831298828 183.3582611083984 206.8309020996094 C 181.7295074462891 209.3993988037109 179.8782958984375 211.7454223632812 177.8561096191406 213.8038482666016 C 175.8038482666016 215.8928680419922 173.5676574707031 217.6930389404297 171.2096557617188 219.1543426513672 C 166.2436828613281 222.2318725585938 160.8285217285156 223.7923278808594 155.1145782470703 223.7923278808594 Z" stroke="none"/>
        <path d="M 110.5 41.88339233398438 C 104.806999206543 41.88339233398438 99.18805694580078 43.65689086914062 94.25064086914062 47.01214599609375 C 91.65144348144531 48.77847290039062 89.24810791015625 50.97525024414062 87.10746765136719 53.54147338867188 C 84.84371948242188 56.2552490234375 82.86491394042969 59.39399719238281 81.22602844238281 62.87052917480469 L 36.6114501953125 157.5101318359375 C 32.92936706542969 165.3208312988281 31.32374572753906 174.0998840332031 31.9681396484375 182.8982238769531 C 32.27241516113281 187.0526428222656 33.06953430175781 191.1415252685547 34.33735656738281 195.0513305664062 C 35.5853271484375 198.8998870849609 37.26536560058594 202.5027465820312 39.33078002929688 205.7598266601562 C 40.88414001464844 208.2094421386719 42.64707946777344 210.4442749023438 44.57061767578125 212.4022521972656 C 46.51097106933594 214.3773651123047 48.62161254882812 216.0771331787109 50.84388732910156 217.4543609619141 C 55.48866271972656 220.3328247070312 60.54936218261719 221.7923278808594 65.88542175292969 221.7923278808594 L 155.1145935058594 221.7923278808594 C 160.4506378173828 221.7923278808594 165.5113372802734 220.3328247070312 170.1560821533203 217.4543304443359 C 172.3783874511719 216.0771331787109 174.4890289306641 214.3773651123047 176.4293823242188 212.4022521972656 C 178.3529205322266 210.4442749023438 180.1158294677734 208.2094421386719 181.6692199707031 205.7598266601562 C 183.7346343994141 202.5027465820312 185.4146728515625 198.8998565673828 186.6626434326172 195.0513305664062 C 187.9304809570312 191.1415252685547 188.7275848388672 187.0526123046875 189.0318603515625 182.8982238769531 C 189.6762542724609 174.0998840332031 188.0706481933594 165.3208312988281 184.3885498046875 157.5101318359375 L 139.7739715576172 62.87052917480469 C 138.1350860595703 59.39399719238281 136.1562805175781 56.25527954101562 133.8925170898438 53.54147338867188 C 131.7518920898438 50.97525024414062 129.3485565185547 48.77847290039062 126.7493362426758 47.01214599609375 C 121.8119201660156 43.65689086914062 116.193000793457 41.88339233398438 110.5 41.88339233398438 M 110.5 37.88339233398438 C 123.2876281738281 37.88339233398438 136.0752563476562 45.64389038085938 143.39208984375 61.16488647460938 L 188.0066680908203 155.8045043945312 C 202.6628570556641 186.8942565917969 184.3819732666016 225.7923278808594 155.1145935058594 225.7923278808594 L 65.88542175292969 225.7923278808594 C 36.61799621582031 225.7923278808594 18.33714294433594 186.8942565917969 32.99333190917969 155.8045043945312 L 77.60791015625 61.16488647460938 C 84.92474365234375 45.64389038085938 97.71237182617188 37.88339233398438 110.5 37.88339233398438 Z" stroke="none" fill="#9b77e3"/>
      </g>
      <g id="Path_38-3" data-name="Path 38" transform="translate(1707 709.884) rotate(180)" fill="#09bbdc">
        <path d="M 155.1145782470703 223.7923278808594 L 65.88542175292969 223.7923278808594 C 60.17150115966797 223.7923278808594 54.75634384155273 222.2318725585938 49.79036712646484 219.1543426513672 C 47.43236923217773 217.6930389404297 45.19615936279297 215.8928680419922 43.1439208984375 213.8038787841797 C 41.12173843383789 211.7454528808594 39.27052688598633 209.3993988037109 37.64176177978516 206.8309020996094 C 35.48647308349609 203.4320831298828 33.7346305847168 199.6764221191406 32.43489456176758 195.6682434082031 C 31.11760520935059 191.6059265136719 30.28947448730469 187.358642578125 29.9734992980957 183.0443267822266 C 29.30400085449219 173.9032897949219 30.97381591796875 164.7788238525391 34.80239486694336 156.6573181152344 L 79.41697692871094 62.01771545410156 C 81.12831878662109 58.38747787475586 83.19905090332031 55.10463714599609 85.5716552734375 52.2603759765625 C 87.83152770996094 49.55121612548828 90.37336730957031 47.22890090942383 93.12652587890625 45.35797882080078 C 98.39686584472656 41.7764778137207 104.4045028686523 39.88339996337891 110.5 39.88339996337891 C 116.5954971313477 39.88339996337891 122.6031341552734 41.7764778137207 127.8734741210938 45.35797882080078 C 130.6266326904297 47.22890090942383 133.1684722900391 49.55121612548828 135.4283447265625 52.2603759765625 C 137.8009490966797 55.10463714599609 139.8716888427734 58.38747787475586 141.5830230712891 62.01771545410156 L 186.1976318359375 156.6573181152344 C 190.0262145996094 164.7788238525391 191.6960296630859 173.9032897949219 191.0265197753906 183.0443267822266 C 190.7105560302734 187.3586120605469 189.8824157714844 191.6059265136719 188.5651245117188 195.6682434082031 C 187.2653961181641 199.6764221191406 185.5135498046875 203.4320831298828 183.3582611083984 206.8309020996094 C 181.7295074462891 209.3993988037109 179.8782958984375 211.7454223632812 177.8561096191406 213.8038482666016 C 175.8038482666016 215.8928680419922 173.5676574707031 217.6930389404297 171.2096557617188 219.1543426513672 C 166.2436828613281 222.2318725585938 160.8285217285156 223.7923278808594 155.1145782470703 223.7923278808594 Z" stroke="none"/>
        <path d="M 110.5 41.88339233398438 C 104.806999206543 41.88339233398438 99.18805694580078 43.65689086914062 94.25064086914062 47.01214599609375 C 91.65144348144531 48.77847290039062 89.24810791015625 50.97525024414062 87.10746765136719 53.54147338867188 C 84.84371948242188 56.2552490234375 82.86491394042969 59.39399719238281 81.22602844238281 62.87052917480469 L 36.6114501953125 157.5101318359375 C 32.92936706542969 165.3208312988281 31.32374572753906 174.0998840332031 31.9681396484375 182.8982238769531 C 32.27241516113281 187.0526428222656 33.06953430175781 191.1415252685547 34.33735656738281 195.0513305664062 C 35.5853271484375 198.8998870849609 37.26536560058594 202.5027465820312 39.33078002929688 205.7598266601562 C 40.88414001464844 208.2094421386719 42.64707946777344 210.4442749023438 44.57061767578125 212.4022521972656 C 46.51097106933594 214.3773651123047 48.62161254882812 216.0771331787109 50.84388732910156 217.4543609619141 C 55.48866271972656 220.3328247070312 60.54936218261719 221.7923278808594 65.88542175292969 221.7923278808594 L 155.1145935058594 221.7923278808594 C 160.4506378173828 221.7923278808594 165.5113372802734 220.3328247070312 170.1560821533203 217.4543304443359 C 172.3783874511719 216.0771331787109 174.4890289306641 214.3773651123047 176.4293823242188 212.4022521972656 C 178.3529205322266 210.4442749023438 180.1158294677734 208.2094421386719 181.6692199707031 205.7598266601562 C 183.7346343994141 202.5027465820312 185.4146728515625 198.8998565673828 186.6626434326172 195.0513305664062 C 187.9304809570312 191.1415252685547 188.7275848388672 187.0526123046875 189.0318603515625 182.8982238769531 C 189.6762542724609 174.0998840332031 188.0706481933594 165.3208312988281 184.3885498046875 157.5101318359375 L 139.7739715576172 62.87052917480469 C 138.1350860595703 59.39399719238281 136.1562805175781 56.25527954101562 133.8925170898438 53.54147338867188 C 131.7518920898438 50.97525024414062 129.3485565185547 48.77847290039062 126.7493362426758 47.01214599609375 C 121.8119201660156 43.65689086914062 116.193000793457 41.88339233398438 110.5 41.88339233398438 M 110.5 37.88339233398438 C 123.2876281738281 37.88339233398438 136.0752563476562 45.64389038085938 143.39208984375 61.16488647460938 L 188.0066680908203 155.8045043945312 C 202.6628570556641 186.8942565917969 184.3819732666016 225.7923278808594 155.1145935058594 225.7923278808594 L 65.88542175292969 225.7923278808594 C 36.61799621582031 225.7923278808594 18.33714294433594 186.8942565917969 32.99333190917969 155.8045043945312 L 77.60791015625 61.16488647460938 C 84.92474365234375 45.64389038085938 97.71237182617188 37.88339233398438 110.5 37.88339233398438 Z" stroke="none" fill="#09bbdc"/>
      </g>
    </g>
  </g>
</svg>
